<svg id="Layer_1" data-name="Layer 1" xmlns="http://www.w3.org/2000/svg" viewBox="0 0 788.32 127.49"><defs><style>.cls-1{font-size:146px;font-family:MunroSmall, Munro Small;}.cls-1,.cls-2{fill:#fff;}</style></defs><title>turingbus logo</title><text class="cls-1" transform="translate(151.44 103)">Turing-Bus</text><path class="cls-2" d="M103,75.6l-62.26.19-.15-51.88,31.12-.09L51.05,44.63l10.38,0L82.12,23.79l20.75-.07ZM97.91,96.37a5.19,5.19,0,1,1,0-10.37,5.19,5.19,0,1,1,0,10.37Zm-15.57,0c-7,5.64-13.9,5.78-20.75.06l0-10.37L82.31,86ZM46,96.53a5.19,5.19,0,1,1,0-10.37,5.19,5.19,0,1,1,0,10.37Zm67.25-62.46-.06-20.75-83,.25.06,20.75-10.38,0L20,55.11l10.37,0L30.49,107l5.19,0,0,10.38,10.38,0,0-10.37,51.88-.16,0,10.38,10.38,0,0-10.37,5.19,0-.16-51.88,10.38,0L123.66,34Z"/><polygon class="cls-2" points="61.49 60.13 71.87 60.13 92.62 39.38 82.25 39.38 61.49 60.13"/></svg>